@startuml Option

class Option <<(A,green)>>
Option : references : ExternalReference - r
Option : name_preferred : str - o - nr
Option : name_translated: str - nr
Option : name_short : str - o - nr
Option : search_term : str - nr
Option : bibliographical_references : Citation - r

class Criterion <<(A,green)>>

class Person <<(O,lime)>>

class Family <<(O,lime)>>

class Personification <<(O,lime)>>

class Organisation <<(O,lime)>>

class NaturalObject <<(O,lime)>>

class Artwork <<(I,red)>>

class Thing <<(O,lime)>>

class Place <<(O,lime)>>

class Text <<(O,lime)>>

class Action <<(O,lime)>>

class Typology <<(A,green)>>

class Iconography <<(A,green)>>


class Image <<(I,red)>>

class EdgeIconographyCriterion <<(E,yellow)>>
EdgeIconographyCriterion : number : int - o - nr 

class EdgeCriterionOption <<(E,yellow)>>
EdgeCriterionOption : number : int - o - nr

class EdgePersonOption <<(E,yellow)>>
EdgePersonOption : numberA : int - nr
EdgePersonOption : numberB : int - nr
EdgePersonOption : previewA : str - nr
EdgePersonOption : previewB : str - nr
EdgePersonOption : copy_variants : bool - o - nr

class EdgeFamilyOption <<(E,yellow)>>
EdgeFamilyOption : numberA : int - nr
EdgeFamilyOption : numberB : int - nr
EdgeFamilyOption : previewA : str - nr
EdgeFamilyOption : previewB : str - nr
EdgeFamilyOption : copy_variants : bool - o - nr

class EdgePersonificationOption <<(E,yellow)>>
EdgePersonificationOption : numberA : int - nr
EdgePersonificationOption : numberB : int - nri
EdgePersonificationOption : previewA : str - nr
EdgePersonificationOption : previewB : str - nr
EdgePersonificationOption : copy_variants : bool - o - nr

class EdgeOrganisationOption <<(E,yellow)>>
EdgeOrganisationOption : numberA : int - nr
EdgeOrganisationOption : numberB : int - nr
EdgeOrganisationOption : previewA : str - nr
EdgeOrganisationOption : previewB : str - nr
EdgeOrganisationOption : copy_variants : bool - o - nr

class EdgeNaturalObjectOption <<(E,yellow)>>
EdgeNaturalObjectOption : numberA : int - nr
EdgeNaturalObjectOption : numberB : int - nri
EdgeNaturalObjectOption : previewA : str - nr
EdgeNaturalObjectOption : previewB : str - nr
EdgeNaturalObjectOption : copy_variants : bool - o - nr

class EdgeThingOption <<(E,yellow)>>
EdgeThingOption : numberA : int - nr
EdgeThingOption : numberB : int - nri
EdgeThingOption : previewA : str - nr
EdgeThingOption : previewB : str - nr
EdgeThingOption : copy_variants : bool - o - nr

class EdgeArtworkOption << (E,yellow) >>
EdgeArtworkOption : numberA : int - nr
EdgeArtworkOption : numberB : int - nr
EdgeArtworkOption : previewA : str - nr
EdgeArtworkOption : previewB : str - nr

class EdgePlaceOption <<(E,yellow)>>
EdgePlaceOption : numberA : int - nr
EdgePlaceOption : numberB : int - nr
EdgePlaceOption : previewA : str - nr
EdgePlaceOption : previewB : str - nr
EdgePlaceOption : copy_variants : bool - o - nr

class EdgeTextOption <<(E,yellow)>>
EdgeTextOption : numberA : int - nr
EdgeTextOption : numberB : int - nr
EdgeTextOption : previewA : str - nr
EdgeTextOption : previewB : str - nr
EdgeTextOption : copy_variants : bool - o - nr

class EdgeActionOption <<(E,yellow)>>
EdgeActionOption : numberA : int - nr
EdgeActionOption : numberB : int - nr
EdgeActionOption : previewA : str - nr
EdgeActionOption : previewB : str - nr

class EdgeTypologyOption <<(E,yellow)>>
EdgeTypologyOption : numberA : int - nr
EdgeTypologyOption : numberB : int - nr
EdgeTypologyOption : previewA : str - nr
EdgeTypologyOption : previewB : str - nr




class EdgeImageIconography <<(E,yellow)>>
EdgeImageIconography : preferred : bool - o - nr
EdgeImageIconography : number : int - o - nr
EdgeImageIconography : qualifier : str - o - nr
EdgeImageIconography : qualifier_comment : str - nr
EdgeImageIconography : qualifier_comments : str - nr
EdgeImageIconography : options : id  - r



Iconography "0..n" -- "1" EdgeIconographyCriterion : has variants >
EdgeIconographyCriterion "1" -- "01" Criterion : variant of <

Criterion "1..n" -- "1" EdgeCriterionOption : option >
EdgeCriterionOption "1" -- "1" Option : < option for

Person "0..n" -- "1" EdgePersonOption : additionally portrayed in >
EdgePersonOption "1" -- "0..n" Option : additional portrayed person <

Family "0..n" -- "1" EdgeFamilyOption : additionally portrayed in >
EdgeFamilyOption "1" -- "0..n" Option : additional portrayed person <

Personification "0.n" -- "1" EdgePersonificationOption : additionally shown in >
EdgePersonificationOption "1" -- "0..n" Option : additionally shows <

Organisation "0..n" -- "1" EdgeOrganisationOption : shows additionally members of >
EdgeOrganisationOption "1" -- "0..n" Option : additional portrayed persons belong to <

NaturalObject "0..n" -- "1" EdgeNaturalObjectOption : shown as attribute >
EdgeNaturalObjectOption "1" -- "0..n" Option : attribute <

Thing "0..n" -- "1" EdgeThingOption : attribute >
EdgeThingOption "1" -- "0..n" Option : object used as attribute <

Artwork "0..n" -- "1" EdgeArtworkOption : additionally shown in >
EdgeArtworkOption "1" -- "0..n" Option : additional shown <

Place "0..n" -- "1" EdgePlaceOption : additionally depicted in >
EdgePlaceOption "1" -- "0..n" Option : additional depicted place <

Text "0..n" -- "1" EdgeTextOption : addition source of >
EdgeTextOption "1" -- "0..n" Option : additional source <

Action "0..n" -- "1" EdgeActionOption : additional action in >
EdgeActionOption "1" -- "0..n" Option : additionally shown Action <

Typology "1" -- "1" EdgeTypologyOption: antitype of > 
EdgeTypologyOption "1" -- Option: with type <

Iconography "0..n" ---- "1" EdgeImageIconography: shown in >

Option "0..n" -- "0..n" EdgeImageIconography : > variant shown in \n shows variant <
EdgeImageIconography "1" -- "0..n" Image : shows  <
@enduml